<mxfile host="app.diagrams.net" modified="2024-06-26T17:57:15.521Z" agent="Mozilla/5.0 (Windows NT 10.0; Win64; x64) AppleWebKit/537.36 (KHTML, like Gecko) Chrome/126.0.0.0 Safari/537.36" etag="G8W4-1-tN37rUYP34vWq" version="24.6.1" type="device">
  <diagram name="PÃ¡gina-1" id="uZ0j-PDT2yEkDYYyR6LV">
    <mxGraphModel dx="2000" dy="2254" grid="1" gridSize="10" guides="1" tooltips="1" connect="1" arrows="1" fold="1" page="1" pageScale="1" pageWidth="827" pageHeight="1169" math="0" shadow="0">
      <root>
        <mxCell id="0" />
        <mxCell id="1" parent="0" />
        <mxCell id="zyp7PkUUwYLHwyUeo-1C-2" value="Persons" style="rounded=1;whiteSpace=wrap;html=1;sketch=1;curveFitting=1;jiggle=2;shadow=1;strokeColor=#1ba2ff;verticalAlign=top;align=center;" vertex="1" parent="1">
          <mxGeometry x="-520" y="-1130" width="890" height="384" as="geometry" />
        </mxCell>
        <object placeholders="1" c4Name="Parceiro" c4Type="Person" c4Description="Description of person." label="&lt;font style=&quot;font-size: 10px;&quot;&gt;&lt;b style=&quot;font-size: 10px;&quot;&gt;%c4Name%&lt;/b&gt;&lt;/font&gt;&lt;div style=&quot;font-size: 10px;&quot;&gt;[%c4Type%]&lt;/div&gt;&lt;br style=&quot;font-size: 10px;&quot;&gt;&lt;div style=&quot;font-size: 10px;&quot;&gt;&lt;font style=&quot;font-size: 10px;&quot;&gt;&lt;font style=&quot;font-size: 10px;&quot;&gt;%c4Description%&lt;/font&gt;&lt;/font&gt;&lt;/div&gt;" id="zyp7PkUUwYLHwyUeo-1C-3">
          <mxCell style="html=1;fontSize=10;dashed=0;whiteSpace=wrap;fillColor=none;strokeColor=#4db6ff;fontColor=#000000;shape=mxgraph.c4.person2;align=center;metaEdit=1;points=[[0.5,0,0],[1,0.5,0],[1,0.75,0],[0.75,1,0],[0.5,1,0],[0.25,1,0],[0,0.75,0],[0,0.5,0]];resizable=1;resizeHeight=1;resizeWidth=1;sketch=1;curveFitting=1;jiggle=2;shadow=1;" vertex="1" parent="1">
            <mxGeometry x="-293" y="-1096" width="120" height="120" as="geometry" />
          </mxCell>
        </object>
        <object placeholders="1" c4Name="Lojista" c4Type="Person" c4Description="Description of person." label="&lt;font style=&quot;font-size: 10px;&quot;&gt;&lt;b style=&quot;font-size: 10px;&quot;&gt;%c4Name%&lt;/b&gt;&lt;/font&gt;&lt;div style=&quot;font-size: 10px;&quot;&gt;[%c4Type%]&lt;/div&gt;&lt;br style=&quot;font-size: 10px;&quot;&gt;&lt;div style=&quot;font-size: 10px;&quot;&gt;&lt;font style=&quot;font-size: 10px;&quot;&gt;&lt;font style=&quot;font-size: 10px;&quot;&gt;%c4Description%&lt;/font&gt;&lt;/font&gt;&lt;/div&gt;" id="zyp7PkUUwYLHwyUeo-1C-4">
          <mxCell style="html=1;fontSize=10;dashed=0;whiteSpace=wrap;fillColor=none;strokeColor=#4db6ff;fontColor=#000000;shape=mxgraph.c4.person2;align=center;metaEdit=1;points=[[0.5,0,0],[1,0.5,0],[1,0.75,0],[0.75,1,0],[0.5,1,0],[0.25,1,0],[0,0.75,0],[0,0.5,0]];resizable=1;resizeHeight=1;resizeWidth=1;sketch=1;curveFitting=1;jiggle=2;shadow=1;" vertex="1" parent="1">
            <mxGeometry x="100" y="-1096" width="120" height="120" as="geometry" />
          </mxCell>
        </object>
        <object placeholders="1" c4Name="Operador - Gateway" c4Type="Person" c4Description="Description of person." label="&lt;font style=&quot;font-size: 10px;&quot;&gt;&lt;b style=&quot;font-size: 10px;&quot;&gt;%c4Name%&lt;/b&gt;&lt;/font&gt;&lt;div style=&quot;font-size: 10px;&quot;&gt;[%c4Type%]&lt;/div&gt;&lt;br style=&quot;font-size: 10px;&quot;&gt;&lt;div style=&quot;font-size: 10px;&quot;&gt;&lt;font style=&quot;font-size: 10px;&quot;&gt;&lt;font style=&quot;font-size: 10px;&quot;&gt;%c4Description%&lt;/font&gt;&lt;/font&gt;&lt;/div&gt;" id="zyp7PkUUwYLHwyUeo-1C-5">
          <mxCell style="html=1;fontSize=10;dashed=0;whiteSpace=wrap;fillColor=none;strokeColor=#4db6ff;fontColor=#000000;shape=mxgraph.c4.person2;align=center;metaEdit=1;points=[[0.5,0,0],[1,0.5,0],[1,0.75,0],[0.75,1,0],[0.5,1,0],[0.25,1,0],[0,0.75,0],[0,0.5,0]];resizable=1;resizeHeight=1;resizeWidth=1;sketch=1;curveFitting=1;jiggle=2;shadow=1;" vertex="1" parent="1">
            <mxGeometry x="-490" y="-906" width="120" height="120" as="geometry" />
          </mxCell>
        </object>
        <object placeholders="1" c4Name="Operador - Parceiro" c4Type="Person" c4Description="Description of person." label="&lt;font style=&quot;font-size: 10px;&quot;&gt;&lt;b style=&quot;font-size: 10px;&quot;&gt;%c4Name%&lt;/b&gt;&lt;/font&gt;&lt;div style=&quot;font-size: 10px;&quot;&gt;[%c4Type%]&lt;/div&gt;&lt;br style=&quot;font-size: 10px;&quot;&gt;&lt;div style=&quot;font-size: 10px;&quot;&gt;&lt;font style=&quot;font-size: 10px;&quot;&gt;&lt;font style=&quot;font-size: 10px;&quot;&gt;%c4Description%&lt;/font&gt;&lt;/font&gt;&lt;/div&gt;" id="zyp7PkUUwYLHwyUeo-1C-6">
          <mxCell style="html=1;fontSize=10;dashed=0;whiteSpace=wrap;fillColor=none;strokeColor=#4db6ff;fontColor=#000000;shape=mxgraph.c4.person2;align=center;metaEdit=1;points=[[0.5,0,0],[1,0.5,0],[1,0.75,0],[0.75,1,0],[0.5,1,0],[0.25,1,0],[0,0.75,0],[0,0.5,0]];resizable=1;resizeHeight=1;resizeWidth=1;sketch=1;curveFitting=1;jiggle=2;shadow=1;" vertex="1" parent="1">
            <mxGeometry x="-293" y="-906" width="120" height="120" as="geometry" />
          </mxCell>
        </object>
        <object placeholders="1" c4Name="Operador - Lojista" c4Type="Person" c4Description="Description of person." label="&lt;font style=&quot;font-size: 10px;&quot;&gt;&lt;b style=&quot;font-size: 10px;&quot;&gt;%c4Name%&lt;/b&gt;&lt;/font&gt;&lt;div style=&quot;font-size: 10px;&quot;&gt;[%c4Type%]&lt;/div&gt;&lt;br style=&quot;font-size: 10px;&quot;&gt;&lt;div style=&quot;font-size: 10px;&quot;&gt;&lt;font style=&quot;font-size: 10px;&quot;&gt;&lt;font style=&quot;font-size: 10px;&quot;&gt;%c4Description%&lt;/font&gt;&lt;/font&gt;&lt;/div&gt;" id="zyp7PkUUwYLHwyUeo-1C-7">
          <mxCell style="html=1;fontSize=10;dashed=0;whiteSpace=wrap;fillColor=none;strokeColor=#4db6ff;fontColor=#000000;shape=mxgraph.c4.person2;align=center;metaEdit=1;points=[[0.5,0,0],[1,0.5,0],[1,0.75,0],[0.75,1,0],[0.5,1,0],[0.25,1,0],[0,0.75,0],[0,0.5,0]];resizable=1;resizeHeight=1;resizeWidth=1;sketch=1;curveFitting=1;jiggle=2;shadow=1;" vertex="1" parent="1">
            <mxGeometry x="16" y="-906" width="120" height="120" as="geometry" />
          </mxCell>
        </object>
        <mxCell id="zyp7PkUUwYLHwyUeo-1C-8" value="" style="endArrow=classic;html=1;rounded=0;exitX=0.998;exitY=0.678;exitDx=0;exitDy=0;exitPerimeter=0;labelBackgroundColor=#000000;labelBorderColor=none;entryX=-0.008;entryY=0.679;entryDx=0;entryDy=0;entryPerimeter=0;sketch=1;curveFitting=1;jiggle=2;strokeColor=#42b2ff;" edge="1" parent="1" source="zyp7PkUUwYLHwyUeo-1C-3" target="zyp7PkUUwYLHwyUeo-1C-4">
          <mxGeometry width="50" height="50" relative="1" as="geometry">
            <mxPoint x="170" y="-706" as="sourcePoint" />
            <mxPoint x="20" y="-1014" as="targetPoint" />
            <Array as="points" />
          </mxGeometry>
        </mxCell>
        <mxCell id="zyp7PkUUwYLHwyUeo-1C-9" value="" style="endArrow=classic;html=1;rounded=0;exitX=0.5;exitY=1;exitDx=0;exitDy=0;exitPerimeter=0;entryX=0.5;entryY=0;entryDx=0;entryDy=0;entryPerimeter=0;labelBackgroundColor=#000000;labelBorderColor=none;sketch=1;curveFitting=1;jiggle=2;strokeColor=#42b2ff;" edge="1" parent="1" source="zyp7PkUUwYLHwyUeo-1C-3" target="zyp7PkUUwYLHwyUeo-1C-6">
          <mxGeometry width="50" height="50" relative="1" as="geometry">
            <mxPoint x="-117" y="-1004" as="sourcePoint" />
            <mxPoint x="30" y="-1004" as="targetPoint" />
            <Array as="points" />
          </mxGeometry>
        </mxCell>
        <mxCell id="zyp7PkUUwYLHwyUeo-1C-10" value="" style="endArrow=classic;html=1;rounded=0;exitX=0.5;exitY=1;exitDx=0;exitDy=0;exitPerimeter=0;entryX=0.5;entryY=0;entryDx=0;entryDy=0;entryPerimeter=0;labelBackgroundColor=#000000;labelBorderColor=none;sketch=1;curveFitting=1;jiggle=2;strokeColor=#42b2ff;" edge="1" parent="1" source="zyp7PkUUwYLHwyUeo-1C-3" target="zyp7PkUUwYLHwyUeo-1C-5">
          <mxGeometry width="50" height="50" relative="1" as="geometry">
            <mxPoint x="-180" y="-966" as="sourcePoint" />
            <mxPoint x="-180" y="-896" as="targetPoint" />
            <Array as="points">
              <mxPoint x="-230" y="-940" />
              <mxPoint x="-430" y="-946" />
            </Array>
          </mxGeometry>
        </mxCell>
        <object placeholders="1" c4Name="Operador - Lojista Operador" c4Type="Person" c4Description="Description of person." label="&lt;font style=&quot;font-size: 10px;&quot;&gt;&lt;b style=&quot;font-size: 10px;&quot;&gt;%c4Name%&lt;/b&gt;&lt;/font&gt;&lt;div style=&quot;font-size: 10px;&quot;&gt;[%c4Type%]&lt;/div&gt;&lt;br style=&quot;font-size: 10px;&quot;&gt;&lt;div style=&quot;font-size: 10px;&quot;&gt;&lt;font style=&quot;font-size: 10px;&quot;&gt;&lt;font style=&quot;font-size: 10px;&quot;&gt;%c4Description%&lt;/font&gt;&lt;/font&gt;&lt;/div&gt;" id="zyp7PkUUwYLHwyUeo-1C-11">
          <mxCell style="html=1;fontSize=10;dashed=0;whiteSpace=wrap;fillColor=none;strokeColor=#4db6ff;fontColor=#000000;shape=mxgraph.c4.person2;align=center;metaEdit=1;points=[[0.5,0,0],[1,0.5,0],[1,0.75,0],[0.75,1,0],[0.5,1,0],[0.25,1,0],[0,0.75,0],[0,0.5,0]];resizable=1;resizeHeight=1;resizeWidth=1;sketch=1;curveFitting=1;jiggle=2;shadow=1;" vertex="1" parent="1">
            <mxGeometry x="220" y="-906" width="120" height="120" as="geometry" />
          </mxCell>
        </object>
        <mxCell id="zyp7PkUUwYLHwyUeo-1C-12" value="" style="endArrow=classic;html=1;rounded=0;exitX=0.5;exitY=1;exitDx=0;exitDy=0;exitPerimeter=0;entryX=0.5;entryY=0;entryDx=0;entryDy=0;entryPerimeter=0;labelBackgroundColor=#000000;labelBorderColor=none;sketch=1;curveFitting=1;jiggle=2;strokeColor=#42b2ff;" edge="1" parent="1" source="zyp7PkUUwYLHwyUeo-1C-4" target="zyp7PkUUwYLHwyUeo-1C-7">
          <mxGeometry width="50" height="50" relative="1" as="geometry">
            <mxPoint x="79.57999999999993" y="-976" as="sourcePoint" />
            <mxPoint x="80" y="-906" as="targetPoint" />
            <Array as="points">
              <mxPoint x="160" y="-950" />
              <mxPoint x="76" y="-950" />
            </Array>
          </mxGeometry>
        </mxCell>
        <mxCell id="zyp7PkUUwYLHwyUeo-1C-13" value="" style="endArrow=classic;html=1;rounded=0;exitX=0.5;exitY=1;exitDx=0;exitDy=0;exitPerimeter=0;entryX=0.5;entryY=0;entryDx=0;entryDy=0;entryPerimeter=0;labelBackgroundColor=#000000;labelBorderColor=none;sketch=1;curveFitting=1;jiggle=2;strokeColor=#42b2ff;" edge="1" parent="1" source="zyp7PkUUwYLHwyUeo-1C-4" target="zyp7PkUUwYLHwyUeo-1C-11">
          <mxGeometry width="50" height="50" relative="1" as="geometry">
            <mxPoint x="240" y="-936" as="sourcePoint" />
            <mxPoint x="60" y="-866" as="targetPoint" />
            <Array as="points">
              <mxPoint x="160" y="-950" />
              <mxPoint x="280" y="-946" />
            </Array>
          </mxGeometry>
        </mxCell>
        <mxCell id="zyp7PkUUwYLHwyUeo-1C-14" value="" style="group" vertex="1" connectable="0" parent="1">
          <mxGeometry x="-498" y="-330" width="850" height="150" as="geometry" />
        </mxCell>
        <mxCell id="zyp7PkUUwYLHwyUeo-1C-15" value="Legenda" style="rounded=1;whiteSpace=wrap;html=1;sketch=1;curveFitting=1;jiggle=2;shadow=1;strokeColor=#1ba2ff;dashed=1;strokeWidth=1;perimeterSpacing=0;dashPattern=8 8;verticalAlign=bottom;align=left;" vertex="1" parent="zyp7PkUUwYLHwyUeo-1C-14">
          <mxGeometry y="-9" width="850" height="150" as="geometry" />
        </mxCell>
        <mxCell id="zyp7PkUUwYLHwyUeo-1C-16" value="database" style="shape=cylinder3;whiteSpace=wrap;html=1;boundedLbl=1;backgroundOutline=1;size=15;fillColor=none;strokeColor=#0284f1;shadow=1;sketch=1;curveFitting=1;jiggle=2;" vertex="1" parent="zyp7PkUUwYLHwyUeo-1C-14">
          <mxGeometry x="470" y="7" width="100" height="60" as="geometry" />
        </mxCell>
        <mxCell id="zyp7PkUUwYLHwyUeo-1C-17" value="Service" style="ellipse;whiteSpace=wrap;html=1;fillColor=none;strokeColor=#1ba2ff;sketch=1;curveFitting=1;jiggle=2;shadow=1;" vertex="1" parent="zyp7PkUUwYLHwyUeo-1C-14">
          <mxGeometry x="220" y="7" width="120" height="60" as="geometry" />
        </mxCell>
        <mxCell id="zyp7PkUUwYLHwyUeo-1C-18" value="front-end" style="rounded=1;whiteSpace=wrap;html=1;sketch=1;curveFitting=1;jiggle=2;shadow=1;strokeColor=#1ba2ff;" vertex="1" parent="zyp7PkUUwYLHwyUeo-1C-14">
          <mxGeometry x="90" y="7" width="120" height="60" as="geometry" />
        </mxCell>
        <mxCell id="zyp7PkUUwYLHwyUeo-1C-19" value="Actor" style="shape=umlActor;verticalLabelPosition=bottom;verticalAlign=top;html=1;outlineConnect=0;shadow=1;sketch=1;curveFitting=1;jiggle=2;strokeColor=#0284f1;" vertex="1" parent="zyp7PkUUwYLHwyUeo-1C-14">
          <mxGeometry x="50" y="10" width="30" height="60" as="geometry" />
        </mxCell>
        <mxCell id="zyp7PkUUwYLHwyUeo-1C-20" value="batch" style="shape=trapezoid;perimeter=trapezoidPerimeter;whiteSpace=wrap;html=1;fixedSize=1;rounded=1;shadow=1;sketch=1;curveFitting=1;jiggle=2;fillColor=none;strokeColor=#1399fa;" vertex="1" parent="zyp7PkUUwYLHwyUeo-1C-14">
          <mxGeometry x="340" y="7" width="120" height="60" as="geometry" />
        </mxCell>
        <mxCell id="zyp7PkUUwYLHwyUeo-1C-21" value="blackbox" style="rounded=1;whiteSpace=wrap;html=1;fillColor=#1ba2ff;sketch=1;curveFitting=1;jiggle=2;shadow=1;strokeColor=#1ba2ff;" vertex="1" parent="zyp7PkUUwYLHwyUeo-1C-14">
          <mxGeometry x="580" y="7" width="120" height="60" as="geometry" />
        </mxCell>
        <mxCell id="zyp7PkUUwYLHwyUeo-1C-22" value="" style="endArrow=classic;html=1;rounded=0;sketch=1;curveFitting=1;jiggle=2;shadow=1;flowAnimation=0;strokeColor=#0284f1;" edge="1" parent="zyp7PkUUwYLHwyUeo-1C-14">
          <mxGeometry width="50" height="50" relative="1" as="geometry">
            <mxPoint x="48" y="119" as="sourcePoint" />
            <mxPoint x="155" y="119" as="targetPoint" />
          </mxGeometry>
        </mxCell>
        <mxCell id="zyp7PkUUwYLHwyUeo-1C-23" value="link" style="edgeLabel;html=1;align=center;verticalAlign=middle;resizable=0;points=[];" vertex="1" connectable="0" parent="zyp7PkUUwYLHwyUeo-1C-22">
          <mxGeometry x="0.2227" y="-2" relative="1" as="geometry">
            <mxPoint x="-18" y="6" as="offset" />
          </mxGeometry>
        </mxCell>
        <mxCell id="zyp7PkUUwYLHwyUeo-1C-24" value="always link" style="html=1;verticalAlign=bottom;startArrow=circle;startFill=1;endArrow=open;startSize=6;endSize=8;curved=0;rounded=0;strokeColor=#1aa1fe;sketch=1;curveFitting=1;jiggle=2;shadow=1;" edge="1" parent="zyp7PkUUwYLHwyUeo-1C-14">
          <mxGeometry x="0.0909" y="-20" width="80" relative="1" as="geometry">
            <mxPoint x="170" y="117" as="sourcePoint" />
            <mxPoint x="280" y="117" as="targetPoint" />
            <mxPoint as="offset" />
          </mxGeometry>
        </mxCell>
        <mxCell id="zyp7PkUUwYLHwyUeo-1C-25" value="" style="endArrow=block;endFill=0;endSize=12;html=1;rounded=0;sketch=1;curveFitting=1;jiggle=2;shadow=1;strokeColor=#19a0fd;" edge="1" parent="zyp7PkUUwYLHwyUeo-1C-14">
          <mxGeometry width="160" relative="1" as="geometry">
            <mxPoint x="288" y="117" as="sourcePoint" />
            <mxPoint x="408" y="117" as="targetPoint" />
          </mxGeometry>
        </mxCell>
        <mxCell id="zyp7PkUUwYLHwyUeo-1C-26" value="Specialization" style="edgeLabel;html=1;align=center;verticalAlign=middle;resizable=0;points=[];" vertex="1" connectable="0" parent="zyp7PkUUwYLHwyUeo-1C-25">
          <mxGeometry x="0.0714" y="3" relative="1" as="geometry">
            <mxPoint x="-4" y="13" as="offset" />
          </mxGeometry>
        </mxCell>
        <mxCell id="zyp7PkUUwYLHwyUeo-1C-27" value="" style="endArrow=diamondThin;endFill=1;endSize=24;html=1;rounded=0;shadow=1;flowAnimation=0;sketch=1;curveFitting=1;jiggle=2;strokeColor=#1ba2ff;" edge="1" parent="zyp7PkUUwYLHwyUeo-1C-14">
          <mxGeometry width="160" relative="1" as="geometry">
            <mxPoint x="418" y="117" as="sourcePoint" />
            <mxPoint x="530" y="117" as="targetPoint" />
          </mxGeometry>
        </mxCell>
        <mxCell id="zyp7PkUUwYLHwyUeo-1C-28" value="Composition" style="edgeLabel;html=1;align=center;verticalAlign=middle;resizable=0;points=[];" vertex="1" connectable="0" parent="zyp7PkUUwYLHwyUeo-1C-27">
          <mxGeometry x="-0.18" relative="1" as="geometry">
            <mxPoint y="10" as="offset" />
          </mxGeometry>
        </mxCell>
        <mxCell id="zyp7PkUUwYLHwyUeo-1C-29" value="Tier" style="rounded=1;whiteSpace=wrap;html=1;sketch=1;curveFitting=1;jiggle=2;shadow=1;strokeColor=#1ba2ff;dashed=1;strokeWidth=1;perimeterSpacing=0;dashPattern=8 8;verticalAlign=bottom;align=left;" vertex="1" parent="zyp7PkUUwYLHwyUeo-1C-14">
          <mxGeometry x="550" y="77" width="120" height="60" as="geometry" />
        </mxCell>
        <mxCell id="zyp7PkUUwYLHwyUeo-1C-30" value="Layer" style="rounded=1;whiteSpace=wrap;html=1;sketch=1;curveFitting=1;jiggle=2;shadow=1;strokeColor=#1ba2ff;verticalAlign=bottom;align=left;" vertex="1" parent="zyp7PkUUwYLHwyUeo-1C-14">
          <mxGeometry x="680" y="78" width="120" height="60" as="geometry" />
        </mxCell>
        <object placeholders="1" c4Name="Apresentante" c4Type="Person" c4Description="Description of person." label="&lt;font style=&quot;font-size: 10px;&quot;&gt;&lt;b style=&quot;font-size: 10px;&quot;&gt;%c4Name%&lt;/b&gt;&lt;/font&gt;&lt;div style=&quot;font-size: 10px;&quot;&gt;[%c4Type%]&lt;/div&gt;&lt;br style=&quot;font-size: 10px;&quot;&gt;&lt;div style=&quot;font-size: 10px;&quot;&gt;&lt;font style=&quot;font-size: 10px;&quot;&gt;&lt;font style=&quot;font-size: 10px;&quot;&gt;%c4Description%&lt;/font&gt;&lt;/font&gt;&lt;/div&gt;" id="zyp7PkUUwYLHwyUeo-1C-32">
          <mxCell style="html=1;fontSize=10;dashed=0;whiteSpace=wrap;fillColor=none;strokeColor=#4db6ff;fontColor=#000000;shape=mxgraph.c4.person2;align=center;metaEdit=1;points=[[0.5,0,0],[1,0.5,0],[1,0.75,0],[0.75,1,0],[0.5,1,0],[0.25,1,0],[0,0.75,0],[0,0.5,0]];resizable=1;resizeHeight=1;resizeWidth=1;sketch=1;curveFitting=1;jiggle=2;shadow=1;" vertex="1" parent="1">
            <mxGeometry x="-490" y="-1096" width="120" height="120" as="geometry" />
          </mxCell>
        </object>
        <mxCell id="zyp7PkUUwYLHwyUeo-1C-33" value="" style="endArrow=classic;html=1;rounded=0;exitX=1;exitY=0.678;exitDx=0;exitDy=0;exitPerimeter=0;labelBackgroundColor=#000000;labelBorderColor=none;entryX=0.011;entryY=0.678;entryDx=0;entryDy=0;entryPerimeter=0;sketch=1;curveFitting=1;jiggle=2;strokeColor=#42b2ff;" edge="1" parent="1" source="zyp7PkUUwYLHwyUeo-1C-32" target="zyp7PkUUwYLHwyUeo-1C-3">
          <mxGeometry width="50" height="50" relative="1" as="geometry">
            <mxPoint x="-370" y="-1020" as="sourcePoint" />
            <mxPoint x="-250" y="-1020" as="targetPoint" />
            <Array as="points" />
          </mxGeometry>
        </mxCell>
        <mxCell id="zyp7PkUUwYLHwyUeo-1C-34" value="Actors" style="rounded=1;whiteSpace=wrap;html=1;sketch=1;curveFitting=1;jiggle=2;shadow=1;strokeColor=#1ba2ff;verticalAlign=top;align=center;" vertex="1" parent="1">
          <mxGeometry x="-520" y="-730" width="900" height="384" as="geometry" />
        </mxCell>
        <mxCell id="zyp7PkUUwYLHwyUeo-1C-52" value="Parceiro" style="shape=umlActor;verticalLabelPosition=bottom;verticalAlign=top;html=1;outlineConnect=0;shadow=1;sketch=1;curveFitting=1;jiggle=2;strokeColor=#0284f1;" vertex="1" parent="1">
          <mxGeometry x="-240" y="-700" width="30" height="60" as="geometry" />
        </mxCell>
        <mxCell id="zyp7PkUUwYLHwyUeo-1C-53" value="Apresentante" style="shape=umlActor;verticalLabelPosition=bottom;verticalAlign=top;html=1;outlineConnect=0;shadow=1;sketch=1;curveFitting=1;jiggle=2;strokeColor=#0284f1;" vertex="1" parent="1">
          <mxGeometry x="-445" y="-700" width="30" height="60" as="geometry" />
        </mxCell>
        <mxCell id="zyp7PkUUwYLHwyUeo-1C-54" value="" style="endArrow=classic;html=1;rounded=0;labelBackgroundColor=#000000;labelBorderColor=none;entryX=0.5;entryY=0.5;entryDx=0;entryDy=0;entryPerimeter=0;sketch=1;curveFitting=1;jiggle=2;strokeColor=#1ba2ff;" edge="1" parent="1" source="zyp7PkUUwYLHwyUeo-1C-53" target="zyp7PkUUwYLHwyUeo-1C-52">
          <mxGeometry width="50" height="50" relative="1" as="geometry">
            <mxPoint x="-390" y="-640.54" as="sourcePoint" />
            <mxPoint x="-269" y="-640.54" as="targetPoint" />
            <Array as="points" />
          </mxGeometry>
        </mxCell>
        <mxCell id="zyp7PkUUwYLHwyUeo-1C-55" value="Lojista" style="shape=umlActor;verticalLabelPosition=bottom;verticalAlign=top;html=1;outlineConnect=0;shadow=1;sketch=1;curveFitting=1;jiggle=2;strokeColor=#0284f1;" vertex="1" parent="1">
          <mxGeometry x="170" y="-700" width="30" height="60" as="geometry" />
        </mxCell>
        <mxCell id="zyp7PkUUwYLHwyUeo-1C-57" value="" style="endArrow=classic;html=1;rounded=0;labelBackgroundColor=#000000;labelBorderColor=none;entryX=0.5;entryY=0.5;entryDx=0;entryDy=0;entryPerimeter=0;exitX=0.5;exitY=0.5;exitDx=0;exitDy=0;exitPerimeter=0;sketch=1;curveFitting=1;jiggle=2;strokeColor=#1ba2ff;" edge="1" parent="1" source="zyp7PkUUwYLHwyUeo-1C-52" target="zyp7PkUUwYLHwyUeo-1C-55">
          <mxGeometry width="50" height="50" relative="1" as="geometry">
            <mxPoint x="-130" y="-650" as="sourcePoint" />
            <mxPoint x="100" y="-650" as="targetPoint" />
            <Array as="points" />
          </mxGeometry>
        </mxCell>
        <mxCell id="zyp7PkUUwYLHwyUeo-1C-58" value="Operador - Gateway" style="shape=umlActor;verticalLabelPosition=bottom;verticalAlign=top;html=1;outlineConnect=0;shadow=1;sketch=1;curveFitting=1;jiggle=2;strokeColor=#0284f1;" vertex="1" parent="1">
          <mxGeometry x="-445" y="-480" width="30" height="60" as="geometry" />
        </mxCell>
        <mxCell id="zyp7PkUUwYLHwyUeo-1C-61" value="Operador-Parceiro" style="shape=umlActor;verticalLabelPosition=bottom;verticalAlign=top;html=1;outlineConnect=0;shadow=1;sketch=1;curveFitting=1;jiggle=2;strokeColor=#0284f1;" vertex="1" parent="1">
          <mxGeometry x="-240" y="-480" width="30" height="60" as="geometry" />
        </mxCell>
        <mxCell id="zyp7PkUUwYLHwyUeo-1C-62" value="Operador-Lojista" style="shape=umlActor;verticalLabelPosition=bottom;verticalAlign=top;html=1;outlineConnect=0;shadow=1;sketch=1;curveFitting=1;jiggle=2;strokeColor=#0284f1;" vertex="1" parent="1">
          <mxGeometry x="61" y="-480" width="30" height="60" as="geometry" />
        </mxCell>
        <mxCell id="zyp7PkUUwYLHwyUeo-1C-63" value="Operador-Lojista Operador" style="shape=umlActor;verticalLabelPosition=bottom;verticalAlign=top;html=1;outlineConnect=0;shadow=1;sketch=1;curveFitting=1;jiggle=2;strokeColor=#0284f1;" vertex="1" parent="1">
          <mxGeometry x="265" y="-480" width="30" height="60" as="geometry" />
        </mxCell>
        <mxCell id="zyp7PkUUwYLHwyUeo-1C-64" value="" style="endArrow=classic;html=1;rounded=0;labelBackgroundColor=#000000;labelBorderColor=none;sketch=1;curveFitting=1;jiggle=2;strokeColor=#1ba2ff;" edge="1" parent="1" source="zyp7PkUUwYLHwyUeo-1C-52" target="zyp7PkUUwYLHwyUeo-1C-61">
          <mxGeometry width="50" height="50" relative="1" as="geometry">
            <mxPoint x="-340" y="-550" as="sourcePoint" />
            <mxPoint x="30" y="-550" as="targetPoint" />
            <Array as="points" />
          </mxGeometry>
        </mxCell>
        <mxCell id="zyp7PkUUwYLHwyUeo-1C-65" value="" style="endArrow=classic;html=1;rounded=0;labelBackgroundColor=#000000;labelBorderColor=none;sketch=1;curveFitting=1;jiggle=2;strokeColor=#1ba2ff;" edge="1" parent="1" source="zyp7PkUUwYLHwyUeo-1C-52" target="zyp7PkUUwYLHwyUeo-1C-58">
          <mxGeometry width="50" height="50" relative="1" as="geometry">
            <mxPoint x="-190" y="-640" as="sourcePoint" />
            <mxPoint x="-175" y="-470" as="targetPoint" />
            <Array as="points">
              <mxPoint x="-225" y="-550" />
              <mxPoint x="-430" y="-550" />
            </Array>
          </mxGeometry>
        </mxCell>
        <mxCell id="zyp7PkUUwYLHwyUeo-1C-66" value="" style="endArrow=classic;html=1;rounded=0;labelBackgroundColor=#000000;labelBorderColor=none;entryX=0.5;entryY=0;entryDx=0;entryDy=0;entryPerimeter=0;sketch=1;curveFitting=1;jiggle=2;strokeColor=#1ba2ff;" edge="1" parent="1" source="zyp7PkUUwYLHwyUeo-1C-55" target="zyp7PkUUwYLHwyUeo-1C-62">
          <mxGeometry width="50" height="50" relative="1" as="geometry">
            <mxPoint x="-175" y="-630" as="sourcePoint" />
            <mxPoint x="-175" y="-470" as="targetPoint" />
            <Array as="points">
              <mxPoint x="185" y="-550" />
              <mxPoint x="76" y="-550" />
            </Array>
          </mxGeometry>
        </mxCell>
        <mxCell id="zyp7PkUUwYLHwyUeo-1C-67" value="" style="endArrow=classic;html=1;rounded=0;labelBackgroundColor=#000000;labelBorderColor=none;entryX=0.5;entryY=0;entryDx=0;entryDy=0;entryPerimeter=0;sketch=1;curveFitting=1;jiggle=2;strokeColor=#1ba2ff;" edge="1" parent="1" source="zyp7PkUUwYLHwyUeo-1C-55" target="zyp7PkUUwYLHwyUeo-1C-63">
          <mxGeometry width="50" height="50" relative="1" as="geometry">
            <mxPoint x="190" y="-640" as="sourcePoint" />
            <mxPoint x="86" y="-470" as="targetPoint" />
            <Array as="points">
              <mxPoint x="185" y="-550" />
              <mxPoint x="280" y="-550" />
            </Array>
          </mxGeometry>
        </mxCell>
        <mxCell id="zyp7PkUUwYLHwyUeo-1C-68" value="Parceiro/&lt;div&gt;Apresentante/&lt;/div&gt;&lt;div&gt;Farmer&lt;/div&gt;" style="shape=umlActor;verticalLabelPosition=bottom;verticalAlign=top;html=1;outlineConnect=0;shadow=1;sketch=1;curveFitting=1;jiggle=2;strokeColor=#0284f1;" vertex="1" parent="1">
          <mxGeometry x="-60" y="-480" width="30" height="60" as="geometry" />
        </mxCell>
        <mxCell id="zyp7PkUUwYLHwyUeo-1C-70" value="" style="endArrow=classic;html=1;rounded=0;labelBackgroundColor=#000000;labelBorderColor=none;entryX=0.5;entryY=0;entryDx=0;entryDy=0;entryPerimeter=0;sketch=1;curveFitting=1;jiggle=2;strokeColor=#1ba2ff;" edge="1" parent="1" source="zyp7PkUUwYLHwyUeo-1C-52" target="zyp7PkUUwYLHwyUeo-1C-68">
          <mxGeometry width="50" height="50" relative="1" as="geometry">
            <mxPoint x="-185" y="-640" as="sourcePoint" />
            <mxPoint x="-420" y="-470" as="targetPoint" />
            <Array as="points">
              <mxPoint x="-225" y="-550" />
              <mxPoint x="-45" y="-550" />
            </Array>
          </mxGeometry>
        </mxCell>
        <object placeholders="1" c4Name="Operador - Parceiro" c4Type="Person" c4Description="Description of person." label="&lt;font style=&quot;font-size: 10px;&quot;&gt;&lt;b style=&quot;font-size: 10px;&quot;&gt;%c4Name%&lt;/b&gt;&lt;/font&gt;&lt;div style=&quot;font-size: 10px;&quot;&gt;[%c4Type%]&lt;/div&gt;&lt;br style=&quot;font-size: 10px;&quot;&gt;&lt;div style=&quot;font-size: 10px;&quot;&gt;&lt;font style=&quot;font-size: 10px;&quot;&gt;&lt;font style=&quot;font-size: 10px;&quot;&gt;%c4Description%&lt;/font&gt;&lt;/font&gt;&lt;/div&gt;" id="zyp7PkUUwYLHwyUeo-1C-71">
          <mxCell style="html=1;fontSize=10;dashed=0;whiteSpace=wrap;fillColor=none;strokeColor=#4db6ff;fontColor=#000000;shape=mxgraph.c4.person2;align=center;metaEdit=1;points=[[0.5,0,0],[1,0.5,0],[1,0.75,0],[0.75,1,0],[0.5,1,0],[0.25,1,0],[0,0.75,0],[0,0.5,0]];resizable=1;resizeHeight=1;resizeWidth=1;sketch=1;curveFitting=1;jiggle=2;shadow=1;" vertex="1" parent="1">
            <mxGeometry x="-120" y="-906" width="120" height="120" as="geometry" />
          </mxCell>
        </object>
        <mxCell id="zyp7PkUUwYLHwyUeo-1C-72" value="" style="endArrow=classic;html=1;rounded=0;entryX=0.5;entryY=0;entryDx=0;entryDy=0;entryPerimeter=0;labelBackgroundColor=#000000;labelBorderColor=none;sketch=1;curveFitting=1;jiggle=2;strokeColor=#42b2ff;exitX=0.5;exitY=1;exitDx=0;exitDy=0;exitPerimeter=0;" edge="1" parent="1" source="zyp7PkUUwYLHwyUeo-1C-3">
          <mxGeometry width="50" height="50" relative="1" as="geometry">
            <mxPoint x="-190" y="-976" as="sourcePoint" />
            <mxPoint x="-60" y="-902" as="targetPoint" />
            <Array as="points">
              <mxPoint x="-230" y="-940" />
              <mxPoint x="-60" y="-946" />
            </Array>
          </mxGeometry>
        </mxCell>
      </root>
    </mxGraphModel>
  </diagram>
</mxfile>
